# xmcd CD database file
#
# Track frame offsets:
#	150
#	19542
#	36428
#	53437
#	69933
#	91311
#	112556
#	132203
#	150207
#	164385
#	181761
#	197990
#	215804
#	233971
#	250921
#	275657
#	293027
#	309678
#	324273
#
# Disc length: 4600 seconds
#
# Revision: 2
# Processed by: cddbd v1.5.2PL0 Copyright (c) Steve Scherf et al.
# Submitted via: CDex 1.50beta9
#
DISCID=fd11f613
DTITLE=sarah connor - naugthy but nice
DYEAR=2004
DGENRE=Country
TTITLE0=Living to Love You
TTITLE1=Paradise
TTITLE2=From Zero to Hero
TTITLE3=I Just Started Being Bad
TTITLE4=Thank You
TTITLE5=You`re the Kinda Man
TTITLE6=One More Night
TTITLE7=Keep Imagining
TTITLE8=Happy Anniversary
TTITLE9=You Are My Desire
TTITLE10=Change
TTITLE11=Dolce Vita
TTITLE12=Call Me
TTITLE13=Ohhh
TTITLE14=From Zero to Hero (Remix)
TTITLE15=From Zero to Hero (Video Version)
TTITLE16=Bounce
TTITLE17=In My House
TTITLE18=Music is the Key
EXTD=YEAR: 2004
EXTT0=
EXTT1=
EXTT2=
EXTT3=
EXTT4=
EXTT5=
EXTT6=
EXTT7=
EXTT8=
EXTT9=
EXTT10=
EXTT11=
EXTT12=
EXTT13=
EXTT14=
EXTT15=
EXTT16=
EXTT17=
EXTT18=
PLAYORDER=
